<?xml version="1.0" encoding="UTF-8" standalone="no"?>
<!DOCTYPE svg PUBLIC "-//W3C//DTD SVG 1.1//EN" "http://www.w3.org/Graphics/SVG/1.1/DTD/svg11.dtd">
<svg version="1.1" xmlns="http://www.w3.org/2000/svg" xmlns:xlink="http://www.w3.org/1999/xlink" preserveAspectRatio="xMidYMid meet" viewBox="0 0 640 640" width="640" height="640"><defs><path d="M1.63 638L637.26 638L637.26 2.32L1.63 2.32L1.63 638Z" id="a78j1vage"></path><path d="M209.2 102.74C211.74 102.74 213.81 104.8 213.81 107.35C213.81 125.33 213.81 174.67 213.81 192.65C213.81 195.2 211.74 197.26 209.2 197.26C181.56 197.26 103.25 197.26 75.61 197.26C73.07 197.26 71 195.2 71 192.65C71 174.67 71 125.33 71 107.35C71 104.8 73.07 102.74 75.61 102.74C103.25 102.74 181.56 102.74 209.2 102.74Z" id="ghWnE02x"></path><path d="" id="bwLP2QdFO"></path><path d="M610.63 136.45L629.79 151.78L610.63 136.45Z" id="bpFgE0UMz"></path><path d="M630 149.01L610.24 163.55L630 149.01Z" id="a2BqUGtK41"></path><path d="M31 135.67L11.84 151L31 135.67Z" id="bQWaMLHAL"></path><path d="M11.24 149.33L31 163.87L11.24 149.33Z" id="aqujnsYDN"></path><path d="M13 150L71 150" id="b4hnem6YSO"></path><path d="M627.27 150L566.06 150" id="d1OQQcWmSR"></path><path d="M561.2 102.74C563.74 102.74 565.81 104.8 565.81 107.35C565.81 125.33 565.81 174.67 565.81 192.65C565.81 195.2 563.74 197.26 561.2 197.26C533.56 197.26 455.25 197.26 427.61 197.26C425.07 197.26 423 195.2 423 192.65C423 174.67 423 125.33 423 107.35C423 104.8 425.07 102.74 427.61 102.74C455.25 102.74 533.56 102.74 561.2 102.74Z" id="blMElpKpf"></path><path d="M194.86 510C197.84 510 200.26 512.42 200.26 515.4C200.26 517.56 200.26 518.64 200.26 520.8C200.26 523.79 197.84 526.21 194.86 526.21C190.54 526.21 182.99 526.21 178.68 526.21C175.69 526.21 173.28 523.79 173.28 520.8C173.28 518.64 173.28 517.56 173.28 515.4C173.28 512.42 175.69 510 178.68 510C182.99 510 190.54 510 194.86 510Z" id="a1DvFFlCiX"></path><path d="M202.59 517.5L213.79 517.5L224.14 517.5" id="a1otNlAYZt"></path><path d="M248.39 510C251.37 510 253.79 512.42 253.79 515.4C253.79 517.56 253.79 518.64 253.79 520.8C253.79 523.79 251.37 526.21 248.39 526.21C244.07 526.21 236.53 526.21 232.21 526.21C229.23 526.21 226.81 523.79 226.81 520.8C226.81 518.64 226.81 517.56 226.81 515.4C226.81 512.42 229.23 510 232.21 510C236.53 510 244.07 510 248.39 510Z" id="b17d0amkKh"></path><path d="M256.12 517.5L267.33 517.5L277.67 517.5" id="d8rk9RVYC"></path><path d="M301.06 510C304.05 510 306.47 512.42 306.47 515.4C306.47 517.56 306.47 518.64 306.47 520.8C306.47 523.79 304.05 526.21 301.06 526.21C296.75 526.21 289.2 526.21 284.89 526.21C281.9 526.21 279.48 523.79 279.48 520.8C279.48 518.64 279.48 517.56 279.48 515.4C279.48 512.42 281.9 510 284.89 510C289.2 510 296.75 510 301.06 510Z" id="e2QX3ot7PQ"></path><path d="M308.79 517.5L320 517.5L330.34 517.5" id="kasj3otJO"></path><path d="M353.82 510C356.81 510 359.22 512.42 359.22 515.4C359.22 517.56 359.22 518.64 359.22 520.8C359.22 523.79 356.81 526.21 353.82 526.21C349.51 526.21 341.96 526.21 337.64 526.21C334.66 526.21 332.24 523.79 332.24 520.8C332.24 518.64 332.24 517.56 332.24 515.4C332.24 512.42 334.66 510 337.64 510C341.96 510 349.51 510 353.82 510Z" id="a9t96byQQ"></path><path d="M361.55 517.5L372.76 517.5L383.1 517.5" id="d3fN72enw"></path><path d="M150 520L161.21 520L171.55 520" id="can1QbEaH"></path><path d="M273.75 140C276.74 140 279.16 142.42 279.16 145.4C279.16 147.56 279.16 148.64 279.16 150.8C279.16 153.79 276.74 156.21 273.75 156.21C269.44 156.21 261.89 156.21 257.57 156.21C254.59 156.21 252.17 153.79 252.17 150.8C252.17 148.64 252.17 147.56 252.17 145.4C252.17 142.42 254.59 140 257.57 140C261.89 140 269.44 140 273.75 140Z" id="b7Xxy6qYj"></path><path d="M281.48 147.5L292.69 147.5L303.03 147.5" id="d1cCnWxRCK"></path><path d="M327.29 140C330.27 140 332.69 142.42 332.69 145.4C332.69 147.56 332.69 148.64 332.69 150.8C332.69 153.79 330.27 156.21 327.29 156.21C322.97 156.21 315.43 156.21 311.11 156.21C308.13 156.21 305.71 153.79 305.71 150.8C305.71 148.64 305.71 147.56 305.71 145.4C305.71 142.42 308.13 140 311.11 140C315.43 140 322.97 140 327.29 140Z" id="a1EAZjS15w"></path><path d="M335.02 147.5L346.22 147.5L356.57 147.5" id="a4SZaqn3QB"></path><path d="M379.96 140C382.94 140 385.36 142.42 385.36 145.4C385.36 147.56 385.36 148.64 385.36 150.8C385.36 153.79 382.94 156.21 379.96 156.21C375.64 156.21 368.1 156.21 363.78 156.21C360.8 156.21 358.38 153.79 358.38 150.8C358.38 148.64 358.38 147.56 358.38 145.4C358.38 142.42 360.8 140 363.78 140C368.1 140 375.64 140 379.96 140Z" id="m1y3H69YAj"></path><path d="M387.69 147.5L398.9 147.5L423.9 147.5" id="bI4zbog3t"></path><path d="M214.24 150L240.1 150L250.45 150" id="eDOxU6WSa"></path><path d="M298.2 292.74C300.74 292.74 302.81 294.8 302.81 297.35C302.81 315.33 302.81 364.67 302.81 382.65C302.81 385.2 300.74 387.26 298.2 387.26C270.56 387.26 192.25 387.26 164.61 387.26C162.07 387.26 160 385.2 160 382.65C160 364.67 160 315.33 160 297.35C160 294.8 162.07 292.74 164.61 292.74C192.25 292.74 270.56 292.74 298.2 292.74Z" id="b208SroVNo"></path><path d="M475.39 292.74C477.93 292.74 480 294.8 480 297.35C480 315.33 480 364.67 480 382.65C480 385.2 477.93 387.26 475.39 387.26C447.75 387.26 369.44 387.26 341.8 387.26C339.26 387.26 337.19 385.2 337.19 382.65C337.19 364.67 337.19 315.33 337.19 297.35C337.19 294.8 339.26 292.74 341.8 292.74C369.44 292.74 447.75 292.74 475.39 292.74Z" id="a3Un499EOb"></path><path d="M328.09 335.52C331.07 335.52 333.49 337.94 333.49 340.92C333.49 343.08 333.49 344.16 333.49 346.32C333.49 349.31 331.07 351.72 328.09 351.72C323.77 351.72 316.23 351.72 311.91 351.72C308.93 351.72 306.51 349.31 306.51 346.32C306.51 344.16 306.51 343.08 306.51 340.92C306.51 337.94 308.93 335.52 311.91 335.52C316.23 335.52 323.77 335.52 328.09 335.52Z" id="b7UZAMhct5"></path><path d="M145.39 470C147.93 470 150 472.07 150 474.61C150 492.6 150 541.93 150 559.91C150 562.46 147.93 564.53 145.39 564.53C117.75 564.53 39.44 564.53 11.8 564.53C9.26 564.53 7.19 562.46 7.19 559.91C7.19 541.93 7.19 492.6 7.19 474.61C7.19 472.07 9.26 470 11.8 470C39.44 470 117.75 470 145.39 470Z" id="b1lt2E0UdK"></path><path d="M627.59 468.06C630.14 468.06 632.21 470.13 632.21 472.67C632.21 490.66 632.21 539.99 632.21 557.97C632.21 560.52 630.14 562.59 627.59 562.59C599.96 562.59 521.65 562.59 494.01 562.59C491.46 562.59 489.4 560.52 489.4 557.97C489.4 539.99 489.4 490.66 489.4 472.67C489.4 470.13 491.46 468.06 494.01 468.06C521.65 468.06 599.96 468.06 627.59 468.06Z" id="b65ArwgXEJ"></path><path d="M406.67 511C409.65 511 412.07 513.42 412.07 516.4C412.07 518.56 412.07 519.64 412.07 521.8C412.07 524.79 409.65 527.21 406.67 527.21C402.35 527.21 394.8 527.21 390.49 527.21C387.5 527.21 385.09 524.79 385.09 521.8C385.09 519.64 385.09 518.56 385.09 516.4C385.09 513.42 387.5 511 390.49 511C394.8 511 402.35 511 406.67 511Z" id="a1kjuoRIcs"></path><path d="M414.4 518.5L425.6 518.5L435.95 518.5" id="bHM3eBioG"></path><path d="M460.2 511C463.18 511 465.6 513.42 465.6 516.4C465.6 518.56 465.6 519.64 465.6 521.8C465.6 524.79 463.18 527.21 460.2 527.21C455.89 527.21 448.34 527.21 444.02 527.21C441.04 527.21 438.62 524.79 438.62 521.8C438.62 519.64 438.62 518.56 438.62 516.4C438.62 513.42 441.04 511 444.02 511C448.34 511 455.89 511 460.2 511Z" id="axS76jyq0"></path><path d="M467.93 518.5L479.14 518.5L489.48 518.5" id="arrlEfAGd"></path><path d="M610.63 326.45L629.79 341.78L610.63 326.45Z" id="bybG4pS4a"></path><path d="M630 339.01L610.24 353.55L630 339.01Z" id="d3zB3FWX8e"></path><path d="M627.27 340L482.44 340" id="eRfahHYLo"></path><path d="M29.76 325.9L10.6 341.23L29.76 325.9Z" id="b1lm1m6Izu"></path><path d="M10 339.56L29.76 354.1L10 339.56Z" id="f1A3RX0WPY"></path><path d="M11.76 340.23L160 340" id="bMVyANh3Z"></path></defs><g><g><g><use xlink:href="#a78j1vage" opacity="1" fill="#000000" fill-opacity="0"></use><g><use xlink:href="#a78j1vage" opacity="1" fill-opacity="0" stroke="#000000" stroke-width="2" stroke-opacity="1"></use></g></g><g><use xlink:href="#ghWnE02x" opacity="1" fill="#00acc1" fill-opacity="1"></use></g><g><g><use xlink:href="#bwLP2QdFO" opacity="1" fill-opacity="0" stroke="#006064" stroke-width="6" stroke-opacity="0.99"></use></g></g><g><g><use xlink:href="#bpFgE0UMz" opacity="1" fill-opacity="0" stroke="#006064" stroke-width="6" stroke-opacity="0.85"></use></g></g><g><g><use xlink:href="#a2BqUGtK41" opacity="1" fill-opacity="0" stroke="#006064" stroke-width="6" stroke-opacity="0.85"></use></g></g><g><g><use xlink:href="#bQWaMLHAL" opacity="1" fill-opacity="0" stroke="#006064" stroke-width="6" stroke-opacity="0.85"></use></g></g><g><g><use xlink:href="#aqujnsYDN" opacity="1" fill-opacity="0" stroke="#006064" stroke-width="6" stroke-opacity="0.85"></use></g></g><g><g><use xlink:href="#b4hnem6YSO" opacity="1" fill-opacity="0" stroke="#006064" stroke-width="8" stroke-opacity="0.85"></use></g></g><g><g><use xlink:href="#d1OQQcWmSR" opacity="1" fill-opacity="0" stroke="#006064" stroke-width="8" stroke-opacity="0.85"></use></g></g><g><use xlink:href="#blMElpKpf" opacity="1" fill="#00acc1" fill-opacity="1"></use></g><g><g><use xlink:href="#a1DvFFlCiX" opacity="1" fill-opacity="0" stroke="#006064" stroke-width="8" stroke-opacity="0.85"></use></g></g><g><g><use xlink:href="#a1otNlAYZt" opacity="1" fill-opacity="0" stroke="#006064" stroke-width="8" stroke-opacity="0.85"></use></g></g><g><g><use xlink:href="#b17d0amkKh" opacity="1" fill-opacity="0" stroke="#006064" stroke-width="8" stroke-opacity="0.85"></use></g></g><g><g><use xlink:href="#d8rk9RVYC" opacity="1" fill-opacity="0" stroke="#006064" stroke-width="8" stroke-opacity="0.85"></use></g></g><g><g><use xlink:href="#e2QX3ot7PQ" opacity="1" fill-opacity="0" stroke="#006064" stroke-width="8" stroke-opacity="0.85"></use></g></g><g><g><use xlink:href="#kasj3otJO" opacity="1" fill-opacity="0" stroke="#006064" stroke-width="8" stroke-opacity="0.85"></use></g></g><g><g><use xlink:href="#a9t96byQQ" opacity="1" fill-opacity="0" stroke="#006064" stroke-width="8" stroke-opacity="0.85"></use></g></g><g><g><use xlink:href="#d3fN72enw" opacity="1" fill-opacity="0" stroke="#006064" stroke-width="8" stroke-opacity="0.85"></use></g></g><g><g><use xlink:href="#can1QbEaH" opacity="1" fill-opacity="0" stroke="#006064" stroke-width="8" stroke-opacity="0.85"></use></g></g><g><g><use xlink:href="#b7Xxy6qYj" opacity="1" fill-opacity="0" stroke="#006064" stroke-width="8" stroke-opacity="0.85"></use></g></g><g><g><use xlink:href="#d1cCnWxRCK" opacity="1" fill-opacity="0" stroke="#006064" stroke-width="8" stroke-opacity="0.85"></use></g></g><g><g><use xlink:href="#a1EAZjS15w" opacity="1" fill-opacity="0" stroke="#006064" stroke-width="8" stroke-opacity="0.85"></use></g></g><g><g><use xlink:href="#a4SZaqn3QB" opacity="1" fill-opacity="0" stroke="#006064" stroke-width="8" stroke-opacity="0.85"></use></g></g><g><g><use xlink:href="#m1y3H69YAj" opacity="1" fill-opacity="0" stroke="#006064" stroke-width="8" stroke-opacity="0.85"></use></g></g><g><g><use xlink:href="#bI4zbog3t" opacity="1" fill-opacity="0" stroke="#006064" stroke-width="8" stroke-opacity="0.85"></use></g></g><g><g><use xlink:href="#eDOxU6WSa" opacity="1" fill-opacity="0" stroke="#006064" stroke-width="8" stroke-opacity="0.85"></use></g></g><g><use xlink:href="#b208SroVNo" opacity="1" fill="#00acc1" fill-opacity="1"></use></g><g><use xlink:href="#a3Un499EOb" opacity="1" fill="#00acc1" fill-opacity="1"></use></g><g><g><use xlink:href="#b7UZAMhct5" opacity="1" fill-opacity="0" stroke="#006064" stroke-width="8" stroke-opacity="0.85"></use></g></g><g><use xlink:href="#b1lt2E0UdK" opacity="1" fill="#00acc1" fill-opacity="1"></use></g><g><use xlink:href="#b65ArwgXEJ" opacity="1" fill="#00acc1" fill-opacity="1"></use></g><g><g><use xlink:href="#a1kjuoRIcs" opacity="1" fill-opacity="0" stroke="#006064" stroke-width="8" stroke-opacity="0.85"></use></g></g><g><g><use xlink:href="#bHM3eBioG" opacity="1" fill-opacity="0" stroke="#006064" stroke-width="8" stroke-opacity="0.85"></use></g></g><g><g><use xlink:href="#axS76jyq0" opacity="1" fill-opacity="0" stroke="#006064" stroke-width="8" stroke-opacity="0.85"></use></g></g><g><g><use xlink:href="#arrlEfAGd" opacity="1" fill-opacity="0" stroke="#006064" stroke-width="8" stroke-opacity="0.85"></use></g></g><g><g><use xlink:href="#bybG4pS4a" opacity="1" fill-opacity="0" stroke="#006064" stroke-width="6" stroke-opacity="0.85"></use></g></g><g><g><use xlink:href="#d3zB3FWX8e" opacity="1" fill-opacity="0" stroke="#006064" stroke-width="6" stroke-opacity="0.85"></use></g></g><g><g><use xlink:href="#eRfahHYLo" opacity="1" fill-opacity="0" stroke="#006064" stroke-width="8" stroke-opacity="0.85"></use></g></g><g><g><use xlink:href="#b1lm1m6Izu" opacity="1" fill-opacity="0" stroke="#006064" stroke-width="6" stroke-opacity="0.85"></use></g></g><g><g><use xlink:href="#f1A3RX0WPY" opacity="1" fill-opacity="0" stroke="#006064" stroke-width="6" stroke-opacity="0.85"></use></g></g><g><g><use xlink:href="#bMVyANh3Z" opacity="1" fill-opacity="0" stroke="#006064" stroke-width="8" stroke-opacity="0.85"></use></g></g></g></g></svg>