<?xml version="1.0" encoding="UTF-8" standalone="no"?>
<!DOCTYPE svg PUBLIC "-//W3C//DTD SVG 1.1//EN" "http://www.w3.org/Graphics/SVG/1.1/DTD/svg11.dtd">
<svg version="1.1" xmlns="http://www.w3.org/2000/svg" xmlns:xlink="http://www.w3.org/1999/xlink" preserveAspectRatio="xMidYMid meet" viewBox="0 0 640 640" width="640" height="640"><defs><path d="M2.46 637.84L637.54 637.84L637.54 2.16L2.46 2.16L2.46 637.84Z" id="c2mByVbrSE"></path><path d="M305.19 250C307.84 250 310 252.16 310 254.81C310 273.58 310 325.06 310 343.82C310 346.48 307.84 348.64 305.19 348.64C256.15 348.64 113.85 348.64 64.81 348.64C62.16 348.64 60 346.48 60 343.82C60 325.06 60 273.58 60 254.81C60 252.16 62.16 250 64.81 250C113.85 250 256.15 250 305.19 250Z" id="bgFn7E6so"></path><path d="M50 230L410 230L410 370L50 370L50 230Z" id="c2BN4fVACj"></path><path d="M40 221.36L606.18 221.36L606.18 378.64L40 378.64L40 221.36Z" id="a2zDcoup"></path><path d="M391.73 330L400 340L320 340" id="dSCgSCAC"></path><path d="M391.73 350L400 340L320 340" id="e339JMDgUM"></path><path d="M328.27 330L320 340L400 340" id="e2wXX8aK64"></path><path d="M328.27 350L320 340L400 340" id="b2yWklfoBQ"></path><path d="M572.42 330L590 340L420 340" id="aVjFhiZC"></path><path d="M572.42 350L590 340L420 340" id="b5VZPLs1Up"></path><path d="M433.44 330L420 340L550 340" id="dKUzELzaV"></path><path d="M433.44 350L420 340L550 340" id="c4SBbGfQAF"></path><path d="" id="b1GK5idtL1"></path><path d="M470 318.54L470 269.74L450 288.54L430 269.74L430 320" id="b1RF4QYbCg"></path><path d="M530 318.54L522.03 298.62L510 268.54L498.28 297.85L490 318.54" id="c2r3Dbuwgu"></path><path d="M521.47 298.54L497.91 298.54" id="gIRNRHEDZ"></path><path d="M590 268.54L550 318.54" id="db8hobDik"></path><path d="M590 318.54L550 268.54" id="bnVyDf1wS"></path></defs><g><g><g><use xlink:href="#c2mByVbrSE" opacity="1" fill="#000000" fill-opacity="0"></use><g><use xlink:href="#c2mByVbrSE" opacity="1" fill-opacity="0" stroke="#000000" stroke-width="2" stroke-opacity="1"></use></g></g><g><use xlink:href="#bgFn7E6so" opacity="1" fill="#4fc3f7" fill-opacity="1"></use></g><g><g><use xlink:href="#c2BN4fVACj" opacity="1" fill-opacity="0" stroke="#2cc893" stroke-width="3" stroke-opacity="1"></use></g></g><g><g><use xlink:href="#a2zDcoup" opacity="1" fill-opacity="0" stroke="#2cc893" stroke-width="3" stroke-opacity="1"></use></g></g><g><g><use xlink:href="#dSCgSCAC" opacity="1" fill-opacity="0" stroke="#000000" stroke-width="2" stroke-opacity="1"></use></g></g><g><g><use xlink:href="#e339JMDgUM" opacity="1" fill-opacity="0" stroke="#000000" stroke-width="2" stroke-opacity="1"></use></g></g><g><g><use xlink:href="#e2wXX8aK64" opacity="1" fill-opacity="0" stroke="#000000" stroke-width="2" stroke-opacity="1"></use></g></g><g><g><use xlink:href="#b2yWklfoBQ" opacity="1" fill-opacity="0" stroke="#000000" stroke-width="2" stroke-opacity="1"></use></g></g><g><g><use xlink:href="#aVjFhiZC" opacity="1" fill-opacity="0" stroke="#000000" stroke-width="2" stroke-opacity="1"></use></g></g><g><g><use xlink:href="#b5VZPLs1Up" opacity="1" fill-opacity="0" stroke="#000000" stroke-width="2" stroke-opacity="1"></use></g></g><g><g><use xlink:href="#dKUzELzaV" opacity="1" fill-opacity="0" stroke="#000000" stroke-width="2" stroke-opacity="1"></use></g></g><g><g><use xlink:href="#c4SBbGfQAF" opacity="1" fill-opacity="0" stroke="#000000" stroke-width="2" stroke-opacity="1"></use></g></g><g><g><use xlink:href="#b1GK5idtL1" opacity="1" fill-opacity="0" stroke="#14503c" stroke-width="2" stroke-opacity="1"></use></g></g><g><g><g><use xlink:href="#b1RF4QYbCg" opacity="1" fill-opacity="0" stroke="#14503c" stroke-width="5" stroke-opacity="1"></use></g></g><g><g><g><use xlink:href="#c2r3Dbuwgu" opacity="1" fill-opacity="0" stroke="#14503c" stroke-width="5" stroke-opacity="1"></use></g></g><g><g><use xlink:href="#gIRNRHEDZ" opacity="1" fill-opacity="0" stroke="#14503c" stroke-width="5" stroke-opacity="1"></use></g></g></g><g><g><g><use xlink:href="#db8hobDik" opacity="1" fill-opacity="0" stroke="#14503c" stroke-width="5" stroke-opacity="1"></use></g></g><g><g><use xlink:href="#bnVyDf1wS" opacity="1" fill-opacity="0" stroke="#14503c" stroke-width="5" stroke-opacity="1"></use></g></g></g></g></g></g></svg>