<?xml version="1.0" encoding="UTF-8" standalone="no"?>
<!DOCTYPE svg PUBLIC "-//W3C//DTD SVG 1.1//EN" "http://www.w3.org/Graphics/SVG/1.1/DTD/svg11.dtd">
<svg version="1.1" xmlns="http://www.w3.org/2000/svg" xmlns:xlink="http://www.w3.org/1999/xlink" preserveAspectRatio="xMidYMid meet" viewBox="0 0 640 640" width="640" height="640"><defs><path d="M2.46 637.84L637.54 637.84L637.54 2.16L2.46 2.16L2.46 637.84Z" id="kmm8rhY79"></path><path d="M245.63 40C251.15 40 255.63 44.48 255.63 50C255.63 88.98 255.63 195.93 255.63 234.92C255.63 240.44 251.15 244.92 245.63 244.92C208.5 244.92 107.13 244.92 70 244.92C64.48 244.92 60 240.44 60 234.92C60 195.93 60 88.98 60 50C60 44.48 64.48 40 70 40C107.13 40 208.5 40 245.63 40Z" id="a1hhtL8fIU"></path><path d="M414.65 335.08C420.18 335.08 424.65 339.56 424.65 345.08C424.65 384.07 424.65 491.02 424.65 530C424.65 535.52 420.18 540 414.65 540C343.72 540 140.93 540 70 540C64.48 540 60 535.52 60 530C60 491.02 60 384.07 60 345.08C60 339.56 64.48 335.08 70 335.08C140.93 335.08 343.72 335.08 414.65 335.08Z" id="aZcD2ex6"></path><path d="M117.5 86.44L132.5 86.44L132.5 186.44L117.5 186.44L117.5 86.44Z" id="b3HfjN3haS"></path><path d="M172.5 116.44C172.5 121.96 168.02 126.44 162.5 126.44C156.98 126.44 152.5 121.96 152.5 116.44C152.5 110.93 156.98 106.44 162.5 106.44C168.02 106.44 172.5 110.93 172.5 116.44Z" id="f19ad3QyPn"></path><path d="M172.5 156.44C172.5 161.96 168.02 166.44 162.5 166.44C156.98 166.44 152.5 161.96 152.5 156.44C152.5 150.93 156.98 146.44 162.5 146.44C168.02 146.44 172.5 150.93 172.5 156.44Z" id="covnp8MGC"></path><path d="M187.5 86.44L202.5 86.44L202.5 186.44L187.5 186.44L187.5 86.44Z" id="eNOxXwRFN"></path><path d="M268.17 413.78C268.17 419.3 263.69 423.78 258.17 423.78C252.65 423.78 248.17 419.3 248.17 413.78C248.17 408.26 252.65 403.78 258.17 403.78C263.69 403.78 268.17 408.26 268.17 413.78Z" id="a75S029JtC"></path><path d="M268.17 453.78C268.17 459.3 263.69 463.78 258.17 463.78C252.65 463.78 248.17 459.3 248.17 453.78C248.17 448.26 252.65 443.78 258.17 443.78C263.69 443.78 268.17 448.26 268.17 453.78Z" id="aKC1ZBEhV"></path><path d="M137.22 380L152.22 380L152.22 480L137.22 480L137.22 380Z" id="b4hjd2j0N"></path><path d="M335.81 412.61C335.81 426.77 325.54 438.27 312.9 438.27C300.26 438.27 290 426.77 290 412.61C290 398.45 300.26 386.95 312.9 386.95C325.54 386.95 335.81 398.45 335.81 412.61Z" id="a1daN4toga"></path><path d="M290.76 459.17C294.91 468.55 300.8 473.17 308.44 473.05C310.24 473.02 312.39 472.96 314.89 472.87C326.56 472.44 335.81 462.85 335.81 451.17C335.81 446.26 335.81 433.97 335.81 414.32" id="daijjLUuV"></path><path d="M180 450.06C180 435.28 190.71 423.29 203.9 423.29C217.08 423.29 227.79 435.28 227.79 450.06C227.79 464.83 217.08 476.83 203.9 476.83C190.71 476.83 180 464.83 180 450.06Z" id="gHXIToLfq"></path><path d="M227 401.47C222.67 391.69 216.52 386.86 208.56 387C206.68 387.03 204.43 387.09 201.82 387.19C189.64 387.63 180 397.64 180 409.82C180 414.95 180 427.77 180 448.27" id="c2HsnEf5a"></path></defs><g><g><g><use xlink:href="#kmm8rhY79" opacity="1" fill="#000000" fill-opacity="0"></use><g><use xlink:href="#kmm8rhY79" opacity="1" fill-opacity="0" stroke="#000000" stroke-width="2" stroke-opacity="1"></use></g></g><g><use xlink:href="#a1hhtL8fIU" opacity="1" fill="#00acc1" fill-opacity="1"></use></g><g><use xlink:href="#aZcD2ex6" opacity="1" fill="#9c83e3" fill-opacity="1"></use></g><g><use xlink:href="#b3HfjN3haS" opacity="1" fill="#000000" fill-opacity="1"></use></g><g><g><use xlink:href="#f19ad3QyPn" opacity="1" fill="#1c0f41" fill-opacity="1"></use></g><g><use xlink:href="#covnp8MGC" opacity="1" fill="#1c0f41" fill-opacity="1"></use></g></g><g><use xlink:href="#eNOxXwRFN" opacity="1" fill="#000000" fill-opacity="1"></use></g><g><g><use xlink:href="#a75S029JtC" opacity="1" fill="#1c0f41" fill-opacity="1"></use></g><g><use xlink:href="#aKC1ZBEhV" opacity="1" fill="#1c0f41" fill-opacity="1"></use></g></g><g><use xlink:href="#b4hjd2j0N" opacity="1" fill="#000000" fill-opacity="1"></use></g><g><g><use xlink:href="#a1daN4toga" opacity="1" fill="#ffffff" fill-opacity="0"></use><g><use xlink:href="#a1daN4toga" opacity="1" fill-opacity="0" stroke="#000000" stroke-width="12" stroke-opacity="1"></use></g></g><g><g><use xlink:href="#daijjLUuV" opacity="1" fill-opacity="0" stroke="#000000" stroke-width="12" stroke-opacity="1"></use></g></g></g><g><g><use xlink:href="#gHXIToLfq" opacity="1" fill="#ffffff" fill-opacity="0"></use><g><use xlink:href="#gHXIToLfq" opacity="1" fill-opacity="0" stroke="#000000" stroke-width="12" stroke-opacity="1"></use></g></g><g><g><use xlink:href="#c2HsnEf5a" opacity="1" fill-opacity="0" stroke="#000000" stroke-width="12" stroke-opacity="1"></use></g></g></g></g></g></svg>