<?xml version="1.0" encoding="UTF-8" standalone="no"?>
<!DOCTYPE svg PUBLIC "-//W3C//DTD SVG 1.1//EN" "http://www.w3.org/Graphics/SVG/1.1/DTD/svg11.dtd">
<svg version="1.1" xmlns="http://www.w3.org/2000/svg" xmlns:xlink="http://www.w3.org/1999/xlink" preserveAspectRatio="xMidYMid meet" viewBox="0 0 640 640" width="640" height="640"><defs><path d="M2.73 638.39L637.81 638.39L637.81 2.7L2.73 2.7L2.73 638.39Z" id="b4blbpiiar"></path><path d="M190.81 5.07C196.34 5.07 200.81 9.54 200.81 15.07C200.81 54.05 200.81 161 200.81 199.98C200.81 205.51 196.34 209.98 190.81 209.98C153.69 209.98 52.31 209.98 15.19 209.98C9.66 209.98 5.19 205.51 5.19 199.98C5.19 161 5.19 54.05 5.19 15.07C5.19 9.54 9.66 5.07 15.19 5.07C52.31 5.07 153.69 5.07 190.81 5.07Z" id="fQm4UXrBh"></path><path d="M267.28 70L206.84 100L267.28 130L267.28 110.5L582.16 110.5L582.16 130L632 100L582.16 70L582.16 89.5L267.28 89.5L267.28 70Z" id="a2cyQjkIZy"></path><path d="M69.34 580.27L100 633.72L130.66 580.27L110.73 580.27L110.73 275.86L130.66 275.86L100 217L69.34 275.86L89.27 275.86L89.27 580.27L69.34 580.27Z" id="a1vfzl1plc"></path></defs><g><g><g><use xlink:href="#b4blbpiiar" opacity="1" fill="#000000" fill-opacity="0"></use><g><use xlink:href="#b4blbpiiar" opacity="1" fill-opacity="0" stroke="#000000" stroke-width="2" stroke-opacity="1"></use></g></g><g><use xlink:href="#fQm4UXrBh" opacity="1" fill="#00acc1" fill-opacity="1"></use></g><g><use xlink:href="#a2cyQjkIZy" opacity="1" fill="#006064" fill-opacity="0.85"></use><g><use xlink:href="#a2cyQjkIZy" opacity="1" fill-opacity="0" stroke="#000000" stroke-width="1" stroke-opacity="1"></use></g></g><g><use xlink:href="#a1vfzl1plc" opacity="1" fill="#006064" fill-opacity="0.85"></use><g><use xlink:href="#a1vfzl1plc" opacity="1" fill-opacity="0" stroke="#000000" stroke-width="1" stroke-opacity="1"></use></g></g></g></g></svg>