<?xml version="1.0" encoding="UTF-8" standalone="no"?>
<!DOCTYPE svg PUBLIC "-//W3C//DTD SVG 1.1//EN" "http://www.w3.org/Graphics/SVG/1.1/DTD/svg11.dtd">
<svg version="1.1" xmlns="http://www.w3.org/2000/svg" xmlns:xlink="http://www.w3.org/1999/xlink" preserveAspectRatio="xMidYMid meet" viewBox="0 0 640 640" width="640" height="640"><defs><path d="M2.73 638.39L637.81 638.39L637.81 2.7L2.73 2.7L2.73 638.39Z" id="a3xTItRH88"></path><path d="M537.81 317.54C543.34 317.54 547.81 322.02 547.81 327.54C547.81 366.52 547.81 473.48 547.81 512.46C547.81 517.98 543.34 522.46 537.81 522.46C500.69 522.46 399.31 522.46 362.19 522.46C356.66 522.46 352.19 517.98 352.19 512.46C352.19 473.48 352.19 366.52 352.19 327.54C352.19 322.02 356.66 317.54 362.19 317.54C399.31 317.54 500.69 317.54 537.81 317.54Z" id="b21lp3xEkq"></path><path d="M492.22 265.09L513.75 302.62L535.28 265.09L521.28 265.09L521.28 51.33L535.28 51.33L513.75 10L492.22 51.33L506.21 51.33L506.21 265.09L492.22 265.09Z" id="a15RuoJ55U"></path><path d="M367.69 133.71C367.69 148.28 358.39 160.12 346.92 160.12C335.46 160.12 326.15 148.28 326.15 133.71C326.15 119.13 335.46 107.29 346.92 107.29C358.39 107.29 367.69 119.13 367.69 133.71Z" id="c1Z8Am0hzd"></path><path d="M420 159.09C420 186.69 411.27 209.09 400.51 209.09C389.76 209.09 381.03 186.69 381.03 159.09C381.03 131.49 389.76 109.09 400.51 109.09C411.27 109.09 420 131.49 420 159.09Z" id="c24xbqAs2i"></path><path d="M367.95 186.29C367.95 200.87 358.64 212.71 347.18 212.71C335.72 212.71 326.41 200.87 326.41 186.29C326.41 171.72 335.72 159.88 347.18 159.88C358.64 159.88 367.95 171.72 367.95 186.29Z" id="dZr71CSU"></path><path d="M437.44 211.4L480 109.09" id="d34MfXdpHj"></path><path d="M454.36 129.09C454.36 137.58 451.72 144.47 448.46 144.47C445.21 144.47 442.56 137.58 442.56 129.09C442.56 120.6 445.21 113.71 448.46 113.71C451.72 113.71 454.36 120.6 454.36 129.09Z" id="bb5jBXn1U"></path><path d="M477.18 190.37C477.18 198.86 474.54 205.76 471.28 205.76C468.03 205.76 465.38 198.86 465.38 190.37C465.38 181.88 468.03 174.99 471.28 174.99C474.54 174.99 477.18 181.88 477.18 190.37Z" id="h1CQbQKCyb"></path></defs><g><g><g><use xlink:href="#a3xTItRH88" opacity="1" fill="#000000" fill-opacity="0"></use><g><use xlink:href="#a3xTItRH88" opacity="1" fill-opacity="0" stroke="#000000" stroke-width="2" stroke-opacity="1"></use></g></g><g><use xlink:href="#b21lp3xEkq" opacity="1" fill="#00acc1" fill-opacity="1"></use></g><g><use xlink:href="#a15RuoJ55U" opacity="1" fill="#006064" fill-opacity="0.85"></use><g><use xlink:href="#a15RuoJ55U" opacity="1" fill-opacity="0" stroke="#000000" stroke-width="1" stroke-opacity="1"></use></g></g><g><g><use xlink:href="#c1Z8Am0hzd" opacity="1" fill-opacity="0" stroke="#000000" stroke-width="8" stroke-opacity="1"></use></g></g><g><g><use xlink:href="#c24xbqAs2i" opacity="1" fill-opacity="0" stroke="#000000" stroke-width="8" stroke-opacity="1"></use></g></g><g><g><use xlink:href="#dZr71CSU" opacity="1" fill-opacity="0" stroke="#000000" stroke-width="8" stroke-opacity="1"></use></g></g><g><g><use xlink:href="#d34MfXdpHj" opacity="1" fill-opacity="0" stroke="#303030" stroke-width="6" stroke-opacity="1"></use></g></g><g><g><use xlink:href="#bb5jBXn1U" opacity="1" fill-opacity="0" stroke="#303030" stroke-width="6" stroke-opacity="1"></use></g></g><g><g><use xlink:href="#h1CQbQKCyb" opacity="1" fill-opacity="0" stroke="#303030" stroke-width="6" stroke-opacity="1"></use></g></g></g></g></svg>