<?xml version="1.0" encoding="UTF-8" standalone="no"?>
<!DOCTYPE svg PUBLIC "-//W3C//DTD SVG 1.1//EN" "http://www.w3.org/Graphics/SVG/1.1/DTD/svg11.dtd">
<svg version="1.1" xmlns="http://www.w3.org/2000/svg" xmlns:xlink="http://www.w3.org/1999/xlink" preserveAspectRatio="xMidYMid meet" viewBox="0 0 640 640" width="640" height="640"><defs><path d="M2.46 637.84L637.54 637.84L637.54 2.16L2.46 2.16L2.46 637.84Z" id="c6c9eU0vT"></path><path d="M126.86 112.46C128.59 112.46 130 113.87 130 115.6C130 127.86 130 161.48 130 173.74C130 175.48 128.59 176.89 126.86 176.89C103.48 176.89 36.52 176.89 13.14 176.89C11.41 176.89 10 175.48 10 173.74C10 161.48 10 127.86 10 115.6C10 113.87 11.41 112.46 13.14 112.46C36.52 112.46 103.48 112.46 126.86 112.46Z" id="f1fhadX1G9"></path><path d="M210.07 198.77C211.75 198.77 213.11 200.14 213.11 201.82C213.11 213.7 213.11 246.3 213.11 258.18C213.11 259.86 211.75 261.23 210.07 261.23C170.05 261.23 53.06 261.23 13.05 261.23C11.36 261.23 10 259.86 10 258.18C10 246.3 10 213.7 10 201.82C10 200.14 11.36 198.77 13.05 198.77C53.06 198.77 170.05 198.77 210.07 198.77Z" id="c1hxgOM9vg"></path><path d="M270 38.28L270 -1.72" id="c16rQEQFrH"></path><path d="M270 89.84L270 49.84" id="e36d7vnjF1"></path><path d="M270 139.84L270 99.84" id="b2t6dDDloS"></path><path d="M270 189.84L270 149.84" id="b10dmOHurI"></path><path d="M270 239.84L270 199.84" id="a1mOxDSCNe"></path><path d="M270 289.84L270 249.84" id="dRDxdpFqI"></path><path d="M270 339.84L270 299.84" id="a4zzRUZD5"></path><path d="M270 389.84L270 349.84" id="a1oYedZmYY"></path><path d="M270 439.84L270 399.84" id="cqhiG3Bw2"></path><path d="M270 489.84L270 449.84" id="byS0zkc4C"></path><path d="M270 539.84L270 499.84" id="b9RlSU04"></path><path d="M270 589.84L270 549.84" id="i1ZXwLZR9F"></path><path d="M270 636.72L270 596.72" id="a5fJ5kuEos"></path><path d="M258.2 220L218.2 220" id="a4skFjlft"></path><path d="M246.72 210L258.2 220" id="b6ZieVUT0"></path><path d="M246.72 230L258.2 220" id="a3tsIi39l"></path><path d="M258.2 247.38L218.2 247.38" id="a1JCPEJu63"></path><path d="M246.72 237.38L258.2 247.38" id="a7GNNoZyKS"></path><path d="M246.72 257.38L258.2 247.38" id="g18057I37q"></path><path d="M607.98 17.38C616.25 17.38 622.95 24.08 622.95 32.35C622.95 149.36 622.95 485.4 622.95 602.4C622.95 610.67 616.25 617.38 607.98 617.38C552.38 617.38 400.57 617.38 344.97 617.38C336.7 617.38 330 610.67 330 602.4C330 485.4 330 149.36 330 32.35C330 24.08 336.7 17.38 344.97 17.38C400.57 17.38 552.38 17.38 607.98 17.38Z" id="cbY3kHoKt"></path><path d="M320 92.62L280 92.62" id="b6GBvHyNNz"></path><path d="M308.52 82.62L320 92.62" id="gcgwRvpw7"></path><path d="M308.52 102.62L320 92.62" id="a1qce7pNYd"></path><path d="M320 480L280 480" id="ao9zPDY8W"></path><path d="M308.52 470L320 480" id="a1TC5ZqMm9"></path><path d="M308.52 490L320 480" id="b1o9cFa8oI"></path></defs><g><g><g><use xlink:href="#c6c9eU0vT" opacity="1" fill="#000000" fill-opacity="0"></use><g><use xlink:href="#c6c9eU0vT" opacity="1" fill-opacity="0" stroke="#000000" stroke-width="2" stroke-opacity="1"></use></g></g><g><use xlink:href="#f1fhadX1G9" opacity="1" fill="#82e67e" fill-opacity="1"></use><g><use xlink:href="#f1fhadX1G9" opacity="1" fill-opacity="0" stroke="#087d49" stroke-width="0" stroke-opacity="1"></use></g></g><g><use xlink:href="#c1hxgOM9vg" opacity="1" fill="#71d8d7" fill-opacity="1"></use><g><use xlink:href="#c1hxgOM9vg" opacity="1" fill-opacity="0" stroke="#087d49" stroke-width="0" stroke-opacity="1"></use></g></g><g><g><g><use xlink:href="#c16rQEQFrH" opacity="0.7" fill="#000000" fill-opacity="1"></use><g><use xlink:href="#c16rQEQFrH" opacity="0.7" fill-opacity="0" stroke="#000000" stroke-width="5" stroke-opacity="1"></use></g></g><g><use xlink:href="#e36d7vnjF1" opacity="0.7" fill="#000000" fill-opacity="1"></use><g><use xlink:href="#e36d7vnjF1" opacity="0.7" fill-opacity="0" stroke="#000000" stroke-width="5" stroke-opacity="1"></use></g></g><g><use xlink:href="#b2t6dDDloS" opacity="0.7" fill="#000000" fill-opacity="1"></use><g><use xlink:href="#b2t6dDDloS" opacity="0.7" fill-opacity="0" stroke="#000000" stroke-width="5" stroke-opacity="1"></use></g></g><g><use xlink:href="#b10dmOHurI" opacity="0.7" fill="#000000" fill-opacity="1"></use><g><use xlink:href="#b10dmOHurI" opacity="0.7" fill-opacity="0" stroke="#000000" stroke-width="5" stroke-opacity="1"></use></g></g><g><use xlink:href="#a1mOxDSCNe" opacity="0.7" fill="#000000" fill-opacity="1"></use><g><use xlink:href="#a1mOxDSCNe" opacity="0.7" fill-opacity="0" stroke="#000000" stroke-width="5" stroke-opacity="1"></use></g></g><g><use xlink:href="#dRDxdpFqI" opacity="0.7" fill="#000000" fill-opacity="1"></use><g><use xlink:href="#dRDxdpFqI" opacity="0.7" fill-opacity="0" stroke="#000000" stroke-width="5" stroke-opacity="1"></use></g></g></g><g><use xlink:href="#a4zzRUZD5" opacity="0.7" fill="#000000" fill-opacity="1"></use><g><use xlink:href="#a4zzRUZD5" opacity="0.7" fill-opacity="0" stroke="#000000" stroke-width="5" stroke-opacity="1"></use></g></g><g><use xlink:href="#a1oYedZmYY" opacity="0.7" fill="#000000" fill-opacity="1"></use><g><use xlink:href="#a1oYedZmYY" opacity="0.7" fill-opacity="0" stroke="#000000" stroke-width="5" stroke-opacity="1"></use></g></g><g><use xlink:href="#cqhiG3Bw2" opacity="0.7" fill="#000000" fill-opacity="1"></use><g><use xlink:href="#cqhiG3Bw2" opacity="0.7" fill-opacity="0" stroke="#000000" stroke-width="5" stroke-opacity="1"></use></g></g><g><use xlink:href="#byS0zkc4C" opacity="0.7" fill="#000000" fill-opacity="1"></use><g><use xlink:href="#byS0zkc4C" opacity="0.7" fill-opacity="0" stroke="#000000" stroke-width="5" stroke-opacity="1"></use></g></g><g><use xlink:href="#b9RlSU04" opacity="0.7" fill="#000000" fill-opacity="1"></use><g><use xlink:href="#b9RlSU04" opacity="0.7" fill-opacity="0" stroke="#000000" stroke-width="5" stroke-opacity="1"></use></g></g><g><use xlink:href="#i1ZXwLZR9F" opacity="0.7" fill="#000000" fill-opacity="1"></use><g><use xlink:href="#i1ZXwLZR9F" opacity="0.7" fill-opacity="0" stroke="#000000" stroke-width="5" stroke-opacity="1"></use></g></g><g><use xlink:href="#a5fJ5kuEos" opacity="0.7" fill="#000000" fill-opacity="1"></use><g><use xlink:href="#a5fJ5kuEos" opacity="0.7" fill-opacity="0" stroke="#000000" stroke-width="5" stroke-opacity="1"></use></g></g></g><g><g><g><use xlink:href="#a4skFjlft" opacity="1" fill-opacity="0" stroke="#000000" stroke-width="3" stroke-opacity="1"></use></g></g><g><g><use xlink:href="#b6ZieVUT0" opacity="1" fill-opacity="0" stroke="#000000" stroke-width="3" stroke-opacity="1"></use></g></g><g><g><use xlink:href="#a3tsIi39l" opacity="1" fill-opacity="0" stroke="#000000" stroke-width="3" stroke-opacity="1"></use></g></g></g><g><g><g><use xlink:href="#a1JCPEJu63" opacity="1" fill-opacity="0" stroke="#000000" stroke-width="3" stroke-opacity="1"></use></g></g><g><g><use xlink:href="#a7GNNoZyKS" opacity="1" fill-opacity="0" stroke="#000000" stroke-width="3" stroke-opacity="1"></use></g></g><g><g><use xlink:href="#g18057I37q" opacity="1" fill-opacity="0" stroke="#000000" stroke-width="3" stroke-opacity="1"></use></g></g></g><g><use xlink:href="#cbY3kHoKt" opacity="1" fill="#b68de4" fill-opacity="0.75"></use><g><use xlink:href="#cbY3kHoKt" opacity="1" fill-opacity="0" stroke="#087d49" stroke-width="0" stroke-opacity="1"></use></g></g><g><g><g><use xlink:href="#b6GBvHyNNz" opacity="1" fill-opacity="0" stroke="#000000" stroke-width="3" stroke-opacity="1"></use></g></g><g><g><use xlink:href="#gcgwRvpw7" opacity="1" fill-opacity="0" stroke="#000000" stroke-width="3" stroke-opacity="1"></use></g></g><g><g><use xlink:href="#a1qce7pNYd" opacity="1" fill-opacity="0" stroke="#000000" stroke-width="3" stroke-opacity="1"></use></g></g></g><g><g><g><use xlink:href="#ao9zPDY8W" opacity="1" fill-opacity="0" stroke="#000000" stroke-width="3" stroke-opacity="1"></use></g></g><g><g><use xlink:href="#a1TC5ZqMm9" opacity="1" fill-opacity="0" stroke="#000000" stroke-width="3" stroke-opacity="1"></use></g></g><g><g><use xlink:href="#b1o9cFa8oI" opacity="1" fill-opacity="0" stroke="#000000" stroke-width="3" stroke-opacity="1"></use></g></g></g></g></g></svg>