<?xml version="1.0" encoding="UTF-8" standalone="no"?>
<!DOCTYPE svg PUBLIC "-//W3C//DTD SVG 1.1//EN" "http://www.w3.org/Graphics/SVG/1.1/DTD/svg11.dtd">
<svg version="1.1" xmlns="http://www.w3.org/2000/svg" xmlns:xlink="http://www.w3.org/1999/xlink" preserveAspectRatio="xMidYMid meet" viewBox="0 0 640 640" width="640" height="640"><defs><path d="M2.19 637.84L637.81 637.84L637.81 2.16L2.19 2.16L2.19 637.84Z" id="eYJZfGsfe"></path><path d="M593.85 97.35C596.4 97.35 598.46 99.42 598.46 101.97C598.46 119.95 598.46 169.28 598.46 187.27C598.46 189.81 596.4 191.88 593.85 191.88C566.21 191.88 487.91 191.88 460.27 191.88C457.72 191.88 455.65 189.81 455.65 187.27C455.65 169.28 455.65 119.95 455.65 101.97C455.65 99.42 457.72 97.35 460.27 97.35C487.91 97.35 566.21 97.35 593.85 97.35Z" id="b6fsP00eX"></path><path d="M47.18 52.31L72.82 52.31L72.82 540L47.18 540L47.18 52.31Z" id="eiVxsiqMf"></path><path d="M336.53 102.74C339.08 102.74 341.15 104.8 341.15 107.35C341.15 125.33 341.15 174.67 341.15 192.65C341.15 195.2 339.08 197.26 336.53 197.26C309 197.26 231 197.26 203.47 197.26C200.92 197.26 198.85 195.2 198.85 192.65C198.85 174.67 198.85 125.33 198.85 107.35C198.85 104.8 200.92 102.74 203.47 102.74C231 102.74 309 102.74 336.53 102.74Z" id="b2TqMIVJ1h"></path><path d="" id="b2yvxrfau"></path><path d="M365.31 136.45L346.15 151.78L365.31 136.45Z" id="a4M6edukk6"></path><path d="M345.94 149.01L365.7 163.55L345.94 149.01Z" id="h20ymRdt4g"></path><path d="M109.61 136.13L90.45 151.46L109.61 136.13Z" id="a8cCyF3Pjh"></path><path d="M90.24 149.33L110 163.87L90.24 149.33Z" id="cCN4as8zJ"></path><path d="M92 150L192 150" id="ceHccc6fu"></path><path d="M348.67 150L448.67 150" id="aEHZqepJq"></path><path d="M337.91 342.74C340.46 342.74 342.52 344.8 342.52 347.35C342.52 365.33 342.52 414.67 342.52 432.65C342.52 435.2 340.46 437.26 337.91 437.26C310.27 437.26 231.97 437.26 204.33 437.26C201.78 437.26 199.72 435.2 199.72 432.65C199.72 414.67 199.72 365.33 199.72 347.35C199.72 344.8 201.78 342.74 204.33 342.74C231.97 342.74 310.27 342.74 337.91 342.74Z" id="e3Y2sgwXJH"></path><path d="M109.37 381.84L90.21 397.17L109.37 381.84Z" id="b312pdVbE"></path><path d="M90 394.39L109.76 408.93L90 394.39Z" id="c5C6jPik"></path><path d="M93.24 395.3L193.24 395.3" id="d36rCsgBvV"></path><path d="M256.87 148.72L238.46 167.13L248.77 177.44L267.18 159.03L285.59 177.44L295.9 167.13L277.49 148.72L295.9 130.31L285.59 120L267.18 138.41L248.77 120L238.46 130.31L256.87 148.72Z" id="a2NBq6i3xf"></path><path d="M272.4 406.51L272.41 406.51L261.04 420L240 395.01L251.36 381.52L261.04 393.01L289.92 358.72L301.28 372.21L272.4 406.51Z" id="bhFS1JHRx"></path><path d="M528.56 157.79L528.56 157.79L517.2 171.28L496.15 146.29L507.51 132.8L517.2 144.3L546.08 110L557.44 123.49L528.56 157.79Z" id="d1JPq1vDQC"></path></defs><g><g><g><use xlink:href="#eYJZfGsfe" opacity="1" fill="#000000" fill-opacity="0"></use><g><use xlink:href="#eYJZfGsfe" opacity="1" fill-opacity="0" stroke="#000000" stroke-width="2" stroke-opacity="1"></use></g></g><g><use xlink:href="#b6fsP00eX" opacity="1" fill="#00acc1" fill-opacity="1"></use></g><g><use xlink:href="#eiVxsiqMf" opacity="1" fill="#0c5d18" fill-opacity="1"></use></g><g><use xlink:href="#b2TqMIVJ1h" opacity="1" fill="#c18600" fill-opacity="1"></use></g><g><g><use xlink:href="#b2yvxrfau" opacity="1" fill-opacity="0" stroke="#006064" stroke-width="6" stroke-opacity="0.99"></use></g></g><g><g><use xlink:href="#a4M6edukk6" opacity="1" fill-opacity="0" stroke="#006064" stroke-width="6" stroke-opacity="0.85"></use></g></g><g><g><use xlink:href="#h20ymRdt4g" opacity="1" fill-opacity="0" stroke="#006064" stroke-width="6" stroke-opacity="0.85"></use></g></g><g><g><use xlink:href="#a8cCyF3Pjh" opacity="1" fill-opacity="0" stroke="#006064" stroke-width="6" stroke-opacity="0.85"></use></g></g><g><g><use xlink:href="#cCN4as8zJ" opacity="1" fill-opacity="0" stroke="#006064" stroke-width="6" stroke-opacity="0.85"></use></g></g><g><g><use xlink:href="#ceHccc6fu" opacity="1" fill-opacity="0" stroke="#006064" stroke-width="8" stroke-opacity="0.85"></use></g></g><g><g><use xlink:href="#aEHZqepJq" opacity="1" fill-opacity="0" stroke="#006064" stroke-width="8" stroke-opacity="0.85"></use></g></g><g><use xlink:href="#e3Y2sgwXJH" opacity="1" fill="#00acc1" fill-opacity="1"></use></g><g><g><use xlink:href="#b312pdVbE" opacity="1" fill-opacity="0" stroke="#006064" stroke-width="6" stroke-opacity="0.85"></use></g></g><g><g><use xlink:href="#c5C6jPik" opacity="1" fill-opacity="0" stroke="#006064" stroke-width="6" stroke-opacity="0.85"></use></g></g><g><g><use xlink:href="#d36rCsgBvV" opacity="1" fill-opacity="0" stroke="#006064" stroke-width="8" stroke-opacity="0.85"></use></g></g><g><use xlink:href="#a2NBq6i3xf" opacity="1" fill="#ad0000" fill-opacity="1"></use></g><g><use xlink:href="#bhFS1JHRx" opacity="1" fill="#fffb3a" fill-opacity="1"></use></g><g><use xlink:href="#d1JPq1vDQC" opacity="1" fill="#fffb3a" fill-opacity="1"></use></g></g></g></svg>