<?xml version="1.0" encoding="UTF-8" standalone="no"?>
<!DOCTYPE svg PUBLIC "-//W3C//DTD SVG 1.1//EN" "http://www.w3.org/Graphics/SVG/1.1/DTD/svg11.dtd">
<svg version="1.1" xmlns="http://www.w3.org/2000/svg" xmlns:xlink="http://www.w3.org/1999/xlink" preserveAspectRatio="xMidYMid meet" viewBox="0 0 640 640" width="640" height="640"><defs><path d="M2.46 637.84L637.54 637.84L637.54 2.16L2.46 2.16L2.46 637.84Z" id="akmjOYaC4"></path><path d="M596.86 147.79C598.59 147.79 600 149.19 600 150.93C600 163.19 600 196.81 600 209.07C600 210.81 598.59 212.21 596.86 212.21C529.23 212.21 329.49 212.21 261.86 212.21C260.12 212.21 258.72 210.81 258.72 209.07C258.72 196.81 258.72 163.19 258.72 150.93C258.72 149.19 260.12 147.79 261.86 147.79C329.49 147.79 529.23 147.79 596.86 147.79Z" id="dk42qIEb"></path><path d="M596.95 242.79C598.64 242.79 600 244.15 600 245.83C600 257.72 600 290.32 600 302.2C600 303.88 598.64 305.25 596.95 305.25C529.56 305.25 330.44 305.25 263.05 305.25C261.36 305.25 260 303.88 260 302.2C260 290.32 260 257.72 260 245.83C260 244.15 261.36 242.79 263.05 242.79C330.44 242.79 529.56 242.79 596.95 242.79Z" id="i6tVJTqLp"></path><path d="M200 41.56L200 1.56" id="aT6kAJVY"></path><path d="M200 91.56L200 51.56" id="j26GUPPO5x"></path><path d="M200 141.56L200 101.56" id="dqOHH5dIC"></path><path d="M200 191.56L200 151.56" id="ah8s4EG1w"></path><path d="M200 241.56L200 201.56" id="fqXPr7EGh"></path><path d="M200 291.56L200 251.56" id="e6593tC92c"></path><path d="M200 341.56L200 301.56" id="an3jtTydS"></path><path d="M200 391.56L200 351.56" id="d3tEcKmviI"></path><path d="M200 441.56L200 401.56" id="acomeBLDo"></path><path d="M200 491.56L200 451.56" id="a2VnMx604Y"></path><path d="M200 541.56L200 501.56" id="dXC8eRIjy"></path><path d="M200 591.56L200 551.56" id="a2QkEFR5OI"></path><path d="M200 638.44L200 598.44" id="b2kSnqwbtC"></path><path d="M210 180L250 180" id="bcaZGWDm1"></path><path d="M221.48 170L210 180" id="e3AbvbbD1M"></path><path d="M221.48 190L210 180" id="biMXB4mPY"></path><path d="M210 274.43L250 274.43" id="aKY9r4bxT"></path><path d="M221.48 264.43L210 274.43" id="a4244NB9SB"></path><path d="M221.48 284.43L210 274.43" id="azu22x3pT"></path><path d="M117.97 89L151.74 89.09L166 89.12" id="b1hJuN3tRT"></path><path d="M176 89L209.77 89.09L224.03 89.12" id="aeWyK3yNt"></path><path d="M2.97 89L36.74 89.09L51 89.12" id="ahdPAUkVU"></path><path d="M61 89L94.77 89.09L109.03 89.12" id="d1hCW7QMF"></path><path d="M349.97 89L383.74 89.09L398 89.12" id="a4FD8ewB1N"></path><path d="M408 89L441.77 89.09L456.03 89.12" id="arWS2rl5z"></path><path d="M234.97 89L268.74 89.09L283 89.12" id="coivfBNv"></path><path d="M293 89L326.77 89.09L341.03 89.12" id="a4kB056FGP"></path><path d="M581.97 89L615.74 89.09L630 89.12" id="igEKuK5cs"></path><path d="M640 89L673.77 89.09L688.03 89.12" id="gcogXtxiV"></path><path d="M466.97 89L500.74 89.09L515 89.12" id="d1g5LS4qo2"></path><path d="M525 89L558.77 89.09L573.03 89.12" id="e6t1pjtXT6"></path><path d="M370.22 100.01L369.45 140" id="cMDMsvC43"></path><path d="M380 111.67L370.22 100.01" id="ai7hNHkwR"></path><path d="M360 111.29L370.22 100.01" id="b2wYsBvomw"></path><path d="M550.22 97L549.45 137" id="b3ZQpjaTi"></path><path d="M560 108.67L550.22 97" id="b35deQCoi5"></path><path d="M540 108.28L550.22 97" id="e6MEhEOrc"></path></defs><g><g><g><use xlink:href="#akmjOYaC4" opacity="1" fill="#000000" fill-opacity="0"></use><g><use xlink:href="#akmjOYaC4" opacity="1" fill-opacity="0" stroke="#000000" stroke-width="2" stroke-opacity="1"></use></g></g><g><use xlink:href="#dk42qIEb" opacity="1" fill="#7ee698" fill-opacity="1"></use><g><use xlink:href="#dk42qIEb" opacity="1" fill-opacity="0" stroke="#087d49" stroke-width="0" stroke-opacity="1"></use></g></g><g><use xlink:href="#i6tVJTqLp" opacity="1" fill="#719fd8" fill-opacity="1"></use><g><use xlink:href="#i6tVJTqLp" opacity="1" fill-opacity="0" stroke="#087d49" stroke-width="0" stroke-opacity="1"></use></g></g><g><use xlink:href="#aT6kAJVY" opacity="0.7" fill="#000000" fill-opacity="1"></use><g><use xlink:href="#aT6kAJVY" opacity="0.7" fill-opacity="0" stroke="#000000" stroke-width="5" stroke-opacity="1"></use></g></g><g><use xlink:href="#j26GUPPO5x" opacity="0.7" fill="#000000" fill-opacity="1"></use><g><use xlink:href="#j26GUPPO5x" opacity="0.7" fill-opacity="0" stroke="#000000" stroke-width="5" stroke-opacity="1"></use></g></g><g><use xlink:href="#dqOHH5dIC" opacity="0.7" fill="#000000" fill-opacity="1"></use><g><use xlink:href="#dqOHH5dIC" opacity="0.7" fill-opacity="0" stroke="#000000" stroke-width="5" stroke-opacity="1"></use></g></g><g><use xlink:href="#ah8s4EG1w" opacity="0.7" fill="#000000" fill-opacity="1"></use><g><use xlink:href="#ah8s4EG1w" opacity="0.7" fill-opacity="0" stroke="#000000" stroke-width="5" stroke-opacity="1"></use></g></g><g><use xlink:href="#fqXPr7EGh" opacity="0.7" fill="#000000" fill-opacity="1"></use><g><use xlink:href="#fqXPr7EGh" opacity="0.7" fill-opacity="0" stroke="#000000" stroke-width="5" stroke-opacity="1"></use></g></g><g><use xlink:href="#e6593tC92c" opacity="0.7" fill="#000000" fill-opacity="1"></use><g><use xlink:href="#e6593tC92c" opacity="0.7" fill-opacity="0" stroke="#000000" stroke-width="5" stroke-opacity="1"></use></g></g><g><use xlink:href="#an3jtTydS" opacity="0.7" fill="#000000" fill-opacity="1"></use><g><use xlink:href="#an3jtTydS" opacity="0.7" fill-opacity="0" stroke="#000000" stroke-width="5" stroke-opacity="1"></use></g></g><g><use xlink:href="#d3tEcKmviI" opacity="0.7" fill="#000000" fill-opacity="1"></use><g><use xlink:href="#d3tEcKmviI" opacity="0.7" fill-opacity="0" stroke="#000000" stroke-width="5" stroke-opacity="1"></use></g></g><g><use xlink:href="#acomeBLDo" opacity="0.7" fill="#000000" fill-opacity="1"></use><g><use xlink:href="#acomeBLDo" opacity="0.7" fill-opacity="0" stroke="#000000" stroke-width="5" stroke-opacity="1"></use></g></g><g><use xlink:href="#a2VnMx604Y" opacity="0.7" fill="#000000" fill-opacity="1"></use><g><use xlink:href="#a2VnMx604Y" opacity="0.7" fill-opacity="0" stroke="#000000" stroke-width="5" stroke-opacity="1"></use></g></g><g><use xlink:href="#dXC8eRIjy" opacity="0.7" fill="#000000" fill-opacity="1"></use><g><use xlink:href="#dXC8eRIjy" opacity="0.7" fill-opacity="0" stroke="#000000" stroke-width="5" stroke-opacity="1"></use></g></g><g><use xlink:href="#a2QkEFR5OI" opacity="0.7" fill="#000000" fill-opacity="1"></use><g><use xlink:href="#a2QkEFR5OI" opacity="0.7" fill-opacity="0" stroke="#000000" stroke-width="5" stroke-opacity="1"></use></g></g><g><use xlink:href="#b2kSnqwbtC" opacity="0.7" fill="#000000" fill-opacity="1"></use><g><use xlink:href="#b2kSnqwbtC" opacity="0.7" fill-opacity="0" stroke="#000000" stroke-width="5" stroke-opacity="1"></use></g></g><g><g><g><use xlink:href="#bcaZGWDm1" opacity="1" fill-opacity="0" stroke="#000000" stroke-width="3" stroke-opacity="1"></use></g></g><g><g><use xlink:href="#e3AbvbbD1M" opacity="1" fill-opacity="0" stroke="#000000" stroke-width="3" stroke-opacity="1"></use></g></g><g><g><use xlink:href="#biMXB4mPY" opacity="1" fill-opacity="0" stroke="#000000" stroke-width="3" stroke-opacity="1"></use></g></g></g><g><g><g><use xlink:href="#aKY9r4bxT" opacity="1" fill-opacity="0" stroke="#000000" stroke-width="3" stroke-opacity="1"></use></g></g><g><g><use xlink:href="#a4244NB9SB" opacity="1" fill-opacity="0" stroke="#000000" stroke-width="3" stroke-opacity="1"></use></g></g><g><g><use xlink:href="#azu22x3pT" opacity="1" fill-opacity="0" stroke="#000000" stroke-width="3" stroke-opacity="1"></use></g></g></g><g><g><g><g><use xlink:href="#b1hJuN3tRT" opacity="0.7" fill="#000000" fill-opacity="1"></use><g><use xlink:href="#b1hJuN3tRT" opacity="0.7" fill-opacity="0" stroke="#000000" stroke-width="5" stroke-opacity="1"></use></g></g><g><use xlink:href="#aeWyK3yNt" opacity="0.7" fill="#000000" fill-opacity="1"></use><g><use xlink:href="#aeWyK3yNt" opacity="0.7" fill-opacity="0" stroke="#000000" stroke-width="5" stroke-opacity="1"></use></g></g><g><use xlink:href="#ahdPAUkVU" opacity="0.7" fill="#000000" fill-opacity="1"></use><g><use xlink:href="#ahdPAUkVU" opacity="0.7" fill-opacity="0" stroke="#000000" stroke-width="5" stroke-opacity="1"></use></g></g><g><use xlink:href="#d1hCW7QMF" opacity="0.7" fill="#000000" fill-opacity="1"></use><g><use xlink:href="#d1hCW7QMF" opacity="0.7" fill-opacity="0" stroke="#000000" stroke-width="5" stroke-opacity="1"></use></g></g></g><g><g><use xlink:href="#a4FD8ewB1N" opacity="0.7" fill="#000000" fill-opacity="1"></use><g><use xlink:href="#a4FD8ewB1N" opacity="0.7" fill-opacity="0" stroke="#000000" stroke-width="5" stroke-opacity="1"></use></g></g><g><use xlink:href="#arWS2rl5z" opacity="0.7" fill="#000000" fill-opacity="1"></use><g><use xlink:href="#arWS2rl5z" opacity="0.7" fill-opacity="0" stroke="#000000" stroke-width="5" stroke-opacity="1"></use></g></g><g><use xlink:href="#coivfBNv" opacity="0.7" fill="#000000" fill-opacity="1"></use><g><use xlink:href="#coivfBNv" opacity="0.7" fill-opacity="0" stroke="#000000" stroke-width="5" stroke-opacity="1"></use></g></g><g><use xlink:href="#a4kB056FGP" opacity="0.7" fill="#000000" fill-opacity="1"></use><g><use xlink:href="#a4kB056FGP" opacity="0.7" fill-opacity="0" stroke="#000000" stroke-width="5" stroke-opacity="1"></use></g></g></g></g><g><g><use xlink:href="#igEKuK5cs" opacity="0.7" fill="#000000" fill-opacity="1"></use><g><use xlink:href="#igEKuK5cs" opacity="0.7" fill-opacity="0" stroke="#000000" stroke-width="5" stroke-opacity="1"></use></g></g><g><use xlink:href="#gcogXtxiV" opacity="0.7" fill="#000000" fill-opacity="1"></use><g><use xlink:href="#gcogXtxiV" opacity="0.7" fill-opacity="0" stroke="#000000" stroke-width="5" stroke-opacity="1"></use></g></g><g><use xlink:href="#d1g5LS4qo2" opacity="0.7" fill="#000000" fill-opacity="1"></use><g><use xlink:href="#d1g5LS4qo2" opacity="0.7" fill-opacity="0" stroke="#000000" stroke-width="5" stroke-opacity="1"></use></g></g><g><use xlink:href="#e6t1pjtXT6" opacity="0.7" fill="#000000" fill-opacity="1"></use><g><use xlink:href="#e6t1pjtXT6" opacity="0.7" fill-opacity="0" stroke="#000000" stroke-width="5" stroke-opacity="1"></use></g></g></g></g><g><g><g><use xlink:href="#cMDMsvC43" opacity="1" fill-opacity="0" stroke="#000000" stroke-width="3" stroke-opacity="1"></use></g></g><g><g><use xlink:href="#ai7hNHkwR" opacity="1" fill-opacity="0" stroke="#000000" stroke-width="3" stroke-opacity="1"></use></g></g><g><g><use xlink:href="#b2wYsBvomw" opacity="1" fill-opacity="0" stroke="#000000" stroke-width="3" stroke-opacity="1"></use></g></g></g><g><g><g><use xlink:href="#b3ZQpjaTi" opacity="1" fill-opacity="0" stroke="#000000" stroke-width="3" stroke-opacity="1"></use></g></g><g><g><use xlink:href="#b35deQCoi5" opacity="1" fill-opacity="0" stroke="#000000" stroke-width="3" stroke-opacity="1"></use></g></g><g><g><use xlink:href="#e6MEhEOrc" opacity="1" fill-opacity="0" stroke="#000000" stroke-width="3" stroke-opacity="1"></use></g></g></g></g></g></svg>