<?xml version="1.0" encoding="UTF-8" standalone="no"?>
<!DOCTYPE svg PUBLIC "-//W3C//DTD SVG 1.1//EN" "http://www.w3.org/Graphics/SVG/1.1/DTD/svg11.dtd">
<svg version="1.1" xmlns="http://www.w3.org/2000/svg" xmlns:xlink="http://www.w3.org/1999/xlink" preserveAspectRatio="xMidYMid meet" viewBox="0 0 640 640" width="640" height="640"><defs><path d="M2.46 637.84L637.54 637.84L637.54 2.16L2.46 2.16L2.46 637.84Z" id="b3lOfKUkPC"></path><path d="M202.68 160C206.72 160 210 163.28 210 167.32C210 195.86 210 274.14 210 302.68C210 306.72 206.72 310 202.68 310C174.14 310 95.86 310 67.32 310C63.28 310 60 306.72 60 302.68C60 274.14 60 195.86 60 167.32C60 163.28 63.28 160 67.32 160C95.86 160 174.14 160 202.68 160Z" id="a3HskOg9K"></path><path d="M382.68 160C386.72 160 390 163.28 390 167.32C390 195.86 390 274.14 390 302.68C390 306.72 386.72 310 382.68 310C354.14 310 275.86 310 247.32 310C243.28 310 240 306.72 240 302.68C240 274.14 240 195.86 240 167.32C240 163.28 243.28 160 247.32 160C275.86 160 354.14 160 382.68 160Z" id="c1cxgIsfyf"></path><path d="M562.68 160C566.72 160 570 163.28 570 167.32C570 195.86 570 274.14 570 302.68C570 306.72 566.72 310 562.68 310C534.14 310 455.86 310 427.32 310C423.28 310 420 306.72 420 302.68C420 274.14 420 195.86 420 167.32C420 163.28 423.28 160 427.32 160C455.86 160 534.14 160 562.68 160Z" id="c5UvErV1Rg"></path><path d="M592.15 135.5C596.87 135.5 600.7 139.32 600.7 144.04C600.7 182.25 600.7 288.34 600.7 326.55C600.7 331.27 596.87 335.1 592.15 335.1C481.58 335.1 158.42 335.1 47.85 335.1C43.13 335.1 39.3 331.27 39.3 326.55C39.3 288.34 39.3 182.25 39.3 144.04C39.3 139.32 43.13 135.5 47.85 135.5C158.42 135.5 481.58 135.5 592.15 135.5Z" id="eyPeytBRo"></path><path d="M270 460L356.78 370" id="d2qS45S6y2"></path><path d="M270 370L356.78 460" id="abN7ccPX2"></path></defs><g><g><g><use xlink:href="#b3lOfKUkPC" opacity="1" fill="#000000" fill-opacity="0"></use><g><use xlink:href="#b3lOfKUkPC" opacity="1" fill-opacity="0" stroke="#000000" stroke-width="2" stroke-opacity="1"></use></g></g><g><use xlink:href="#a3HskOg9K" opacity="1" fill="#df7ee6" fill-opacity="1"></use><g><use xlink:href="#a3HskOg9K" opacity="1" fill-opacity="0" stroke="#087d49" stroke-width="0" stroke-opacity="1"></use></g></g><g><use xlink:href="#c1cxgIsfyf" opacity="1" fill="#7ee698" fill-opacity="1"></use><g><use xlink:href="#c1cxgIsfyf" opacity="1" fill-opacity="0" stroke="#087d49" stroke-width="0" stroke-opacity="1"></use></g></g><g><use xlink:href="#c5UvErV1Rg" opacity="1" fill="#7eb4e6" fill-opacity="1"></use><g><use xlink:href="#c5UvErV1Rg" opacity="1" fill-opacity="0" stroke="#087d49" stroke-width="0" stroke-opacity="1"></use></g></g><g><use xlink:href="#eyPeytBRo" opacity="1" fill="#ffffff" fill-opacity="0"></use><g><use xlink:href="#eyPeytBRo" opacity="1" fill-opacity="0" stroke="#000000" stroke-width="8" stroke-opacity="1"></use></g></g><g><g><use xlink:href="#d2qS45S6y2" opacity="1" fill-opacity="0" stroke="#ff0000" stroke-width="16" stroke-opacity="1"></use></g></g><g><use xlink:href="#abN7ccPX2" opacity="1" fill="#fc0000" fill-opacity="1"></use><g><use xlink:href="#abN7ccPX2" opacity="1" fill-opacity="0" stroke="#fc0000" stroke-width="16" stroke-opacity="1"></use></g></g></g></g></svg>